<?xml version="1.0" encoding="UTF-8"?>
<svg xmlns="http://www.w3.org/2000/svg" viewBox="0 0 1920 773">
  <defs>
    <style>.cls-1{fill:#fff;}</style>
  </defs>
  <g id="AxonopsFullLogoWhite">
    <g id="Shape">
      <path class="cls-1" d="M416.72,344.53l102.86-59.39a12.78,12.78,0,0,0,0-22.13L414.17,202.15A12.78,12.78,0,0,0,395,213.22V332a12.78,12.78,0,0,0,6.39,11.07l2.55,1.48A12.79,12.79,0,0,0,416.72,344.53Z"></path>
      <path class="cls-1" d="M432.39,400.77l102.44,59.15A12.78,12.78,0,0,0,554,448.85V327.58a12.78,12.78,0,0,0-19.17-11.07L432.39,375.66A12.78,12.78,0,0,0,426,386.72v3A12.78,12.78,0,0,0,432.39,400.77Z"></path>
      <path class="cls-1" d="M419,478v78a8.41,8.41,0,0,0,12.61,7.28l69.27-40a8.41,8.41,0,0,0,0-14.56l-67.59-39a8.42,8.42,0,0,0-8.41,0l-1.68,1A8.41,8.41,0,0,0,419,478Z"></path>
      <path class="cls-1" d="M338.28,346.44,235.42,287.06a12.78,12.78,0,0,1,0-22.13l105.41-60.86A12.78,12.78,0,0,1,360,215.14V333.9A12.8,12.8,0,0,1,353.61,345l-2.55,1.47A12.79,12.79,0,0,1,338.28,346.44Z"></path>
      <path class="cls-1" d="M321.61,400.81,219.17,460A12.78,12.78,0,0,1,200,448.89V327.62a12.78,12.78,0,0,1,19.17-11.07L321.61,375.7A12.78,12.78,0,0,1,328,386.76v3A12.78,12.78,0,0,1,321.61,400.81Z"></path>
      <path class="cls-1" d="M360,441.94V560.56a12.78,12.78,0,0,1-19.17,11.06L235.55,510.84a12.78,12.78,0,0,1,0-22.13L338.28,429.4a12.75,12.75,0,0,1,12.78,0l2.55,1.47A12.78,12.78,0,0,1,360,441.94Z"></path>
    </g>
    <path class="cls-1" d="M742.91,442.89c-12.07,16.86-30.18,27.17-53.37,27.17-45.1,0-74.65-38.1-74.65-82.44,0-44,30.5-81.82,74.65-81.82,22.24,0,39.71,9.68,51.46,24.67V309.86L768,313V466H745.76Zm.13-55.75c0-35.29-23.11-57.77-50.28-57.77-26.86,0-47.78,23.42-47.78,57.77,0,33.41,20,58.4,47.78,58.4C719.3,445.54,743,423.37,743,387.14Z"></path>
    <path class="cls-1" d="M823.07,309l32.76,52.1L888.91,309h28.7l-46.8,72.7L923.54,465h-30L854.9,403.85,815.9,465H787.19l52.42-81.74L793.12,309Z"></path>
    <path class="cls-1" d="M927.5,387.45c0-44.66,32.48-82.13,79.32-82.13s79.32,37.47,79.32,82.13-32.16,82.13-79.32,82.13S927.5,432.11,927.5,387.45Zm131.16,0c0-32.79-21.55-58.08-51.84-58.08-30,0-51.84,25.29-51.84,58.08s21.55,58.09,51.84,58.09S1058.66,420.24,1058.66,387.45Z"></path>
    <path class="cls-1" d="M1114,313l22.55-3.12,2.82,24c11-18.42,28.51-28.1,52.63-28.1,31.33,0,52,22.79,52,59.64V466h-27V370.13c0-24.36-10.06-40.29-30.8-40.29-27.34,0-46.2,22.8-46.2,63.4V466h-26Z"></path>
    <path class="cls-1" d="M1269.6,387.45c0-44.66,32.48-82.13,79.32-82.13s79.32,37.47,79.32,82.13-32.16,82.13-79.32,82.13S1269.6,432.11,1269.6,387.45Zm131.16,0c0-32.79-21.55-58.08-51.84-58.08-30,0-51.84,25.29-51.84,58.08s21.55,58.09,51.84,58.09S1400.76,420.24,1400.76,387.45Z"></path>
    <path class="cls-1" d="M1456,311.65l22.24-2.18,2.85,23.42c11.76-16.87,29.86-27.48,53.37-27.48,44.79,0,74.65,37.78,74.65,82.13,0,44-30.18,82.13-74.65,82.13-22.24,0-40-9.37-51.46-24.36V534h-27Zm123.14,75.8c0-33.73-20.3-58.08-47.78-58.08-27.17,0-50.28,22.79-50.28,58.39,0,35.92,23.73,57.78,50.28,57.78C1558.53,445.54,1579.14,421.49,1579.14,387.45Z"></path>
    <path class="cls-1" d="M1627.51,434.61c13.43,6.56,26.23,10.93,39,10.93,15.62,0,26.86-9.37,26.86-21.55,0-30.6-68.08-23.11-68.08-74.32,0-29.05,24.36-44.35,49.66-44.35,14.67,0,27.48,3.75,41.22,10l-8.12,21.55c-10.62-4.68-20.3-7.49-32.17-7.49-15,0-23.11,8.74-23.11,20.3,0,29.35,68.08,24.67,68.08,74.32,0,27.48-23.11,45.59-53.4,45.59-15.61,0-30.92-4.06-47.16-12.18Z"></path>
  </g>
</svg>
